<svg width="559" height="395" viewBox="0 0 559 395" fill="none" xmlns="http://www.w3.org/2000/svg">
<path d="M423.097 380.555L420.115 380.873L417.24 381.15L414.471 381.375L411.828 381.548L409.257 381.68L406.81 381.759L404.452 381.799H402.184L400.023 381.746L397.952 381.653L395.969 381.521L394.076 381.349L392.255 381.124L390.54 380.873L388.897 380.581L387.343 380.25L385.861 379.88L384.45 379.47L383.128 379.02L381.86 378.543L380.682 378.027L379.557 377.471L378.503 376.889L377.521 376.267L376.592 375.618L375.735 374.93L374.931 374.215L374.181 373.474L373.484 372.693L372.841 371.886L371.716 370.192L370.77 368.392L370.002 366.486L369.377 364.488L368.895 362.383L368.555 360.199L368.305 357.936L368.145 355.594L368.055 353.172L368.037 350.697L368.073 348.155L368.109 345.561L368.18 342.928L368.27 337.501L368.287 334.748L364.376 273.51L348.089 330.05C344.66 340.532 340.802 350.379 361.376 358.32C375.949 367.862 359.661 380.886 343.802 379.298C296.225 380.555 303.083 357.063 307.369 340.532L309.941 316.391L317.656 267.157L311.227 254.769C259.364 244.922 224.217 237.616 184.355 221.734L156.066 224.593C142.779 226.181 146.208 237.299 144.922 244.604L140.635 264.629L117.061 310.052L115.347 313.85C113.632 317.027 114.061 329.415 120.062 335.768L132.92 354.839C142.35 365.308 144.922 391.99 118.347 383.414H118.776L99.0592 377.378C84.9146 372.945 73.3418 344.039 68.1984 323.075L69.0556 293.204C56.6256 290.676 51.4821 343.709 56.6256 354.839L69.0556 382.461C72.4846 391.355 58.34 394.544 48.4817 394.544C25.3361 394.544 15.0492 377.061 10.3344 362.449L6.90539 351.332C0.904676 334.497 3.90502 308.768 15.4778 293.839L21.4785 284.627C31.3368 266.204 18.4782 253.181 15.4778 243.652C5.6195 213.793 -2.52429 184.888 25.3361 156.3L27.9079 154.09C26.622 151.853 18.4782 147.102 13.7634 135.971C3.0478 110.56 -6.3819 68.949 6.90539 68.949L15.9064 68.6313C38.1948 68.6313 31.3368 137.242 58.3401 132.795L251.22 134.383L285.51 127.408C297.511 124.854 308.227 119.136 319.371 114.054L341.659 103.89C366.519 122.63 388.808 134.383 425.241 144.23C435.099 200.135 423.955 212.536 414.525 245.875L411.096 259.534C403.809 283.37 401.666 308.133 403.381 332.909L404.238 344.344C403.381 356.097 412.811 357.063 425.241 359.921C433.384 363.085 438.956 374.837 423.097 380.555H423.526H423.097Z" fill="#242424"/>
<path d="M464.245 38.1378L465.21 38.6672L466.21 39.1966L468.228 40.348L470.317 41.5789L472.443 42.8892L474.604 44.2656L476.782 45.695L478.997 47.1773L481.229 48.6993L483.462 50.2743L485.694 51.8625L490.105 55.1183L492.266 56.7595L494.409 58.4006L496.499 60.0285L498.535 61.6565L512.251 72.443C520.823 79.1135 534.111 78.1606 545.683 80.0664L550.398 80.384C562.828 85.4795 558.971 95.6441 554.684 103.254L552.113 108.032C539.683 129.936 503.678 131.524 477.961 121.36L466.817 116.913H462.959L454.815 120.724L438.956 130.267C405.524 119.467 378.521 106.748 357.09 89.5956L406.81 43.22L423.526 25.4321L426.955 19.3969L430.813 12.7397C430.813 12.7397 446.243 -1.56736 455.244 1.29141C464.245 4.16341 469.817 16.5382 467.674 22.891L465.102 30.5144L464.245 38.1378H464.674H464.245Z" fill="#242424"/>
</svg>
