<svg width="71" height="71" viewBox="0 0 71 71" fill="none" xmlns="http://www.w3.org/2000/svg">
<path d="M12.9642 0C5.78259 0 0 5.78258 0 12.9641V58.0358C0 65.2173 5.78259 70.9999 12.9642 70.9999H37.3926V43.2434H30.053V33.2502H37.3926V24.7124C37.3926 18.0047 41.7293 11.8459 51.7191 11.8459C55.7638 11.8459 58.7548 12.2342 58.7548 12.2342L58.5196 21.5663C58.5196 21.5663 55.4692 21.5375 52.1406 21.5375C48.5382 21.5375 47.9605 23.1973 47.9605 25.9528V33.2502H58.8058L58.3332 43.2435H47.9605V71H58.0358C65.2174 71 71 65.2174 71 58.0359V12.9642C71 5.78265 65.2174 7.09999e-05 58.0358 7.09999e-05H12.9641L12.9642 0Z" fill="white"/>
</svg>
