<svg width="72" height="72" viewBox="0 0 72 72" fill="none" xmlns="http://www.w3.org/2000/svg">
<path fill-rule="evenodd" clip-rule="evenodd" d="M21.1582 0.216C24.9971 0.0392727 26.2211 0 36 0C45.7789 0 47.0029 0.0425454 50.8385 0.216C54.6742 0.389455 57.2924 1.00145 59.5833 1.88836C61.9822 2.79491 64.1585 4.212 65.9585 6.04473C67.7913 7.84145 69.2051 10.0145 70.1084 12.4167C70.9986 14.7076 71.6073 17.3258 71.784 21.1549C71.9607 25.0004 72 26.2244 72 36C72 45.7789 71.9575 47.0029 71.784 50.8418C71.6105 54.6709 70.9986 57.2891 70.1084 59.58C69.2051 61.9825 67.7889 64.1592 65.9585 65.9585C64.1585 67.7913 61.9822 69.2051 59.5833 70.1084C57.2924 70.9986 54.6742 71.6073 50.8451 71.784C47.0029 71.9607 45.7789 72 36 72C26.2211 72 24.9971 71.9575 21.1582 71.784C17.3291 71.6105 14.7109 70.9986 12.42 70.1084C10.0176 69.205 7.84087 67.7888 6.04145 65.9585C4.20997 64.1607 2.79267 61.9851 1.88836 59.5833C1.00145 57.2924 0.392727 54.6742 0.216 50.8451C0.0392727 46.9996 0 45.7756 0 36C0 26.2211 0.0425454 24.9971 0.216 21.1615C0.389455 17.3258 1.00145 14.7076 1.88836 12.4167C2.794 10.0148 4.21239 7.83921 6.04473 6.04145C7.84159 4.21037 10.0161 2.79309 12.4167 1.88836C14.7076 1.00145 17.3258 0.392727 21.1549 0.216H21.1582ZM50.5473 6.696C46.7509 6.52255 45.612 6.48655 36 6.48655C26.388 6.48655 25.2491 6.52255 21.4527 6.696C17.9411 6.85636 16.0364 7.44218 14.7665 7.93636C13.0876 8.59091 11.8865 9.36655 10.6265 10.6265C9.43215 11.7885 8.51295 13.2031 7.93636 14.7665C7.44218 16.0364 6.85636 17.9411 6.696 21.4527C6.52255 25.2491 6.48655 26.388 6.48655 36C6.48655 45.612 6.52255 46.7509 6.696 50.5473C6.85636 54.0589 7.44218 55.9636 7.93636 57.2335C8.51236 58.7946 9.432 60.2116 10.6265 61.3735C11.7884 62.568 13.2055 63.4876 14.7665 64.0636C16.0364 64.5578 17.9411 65.1436 21.4527 65.304C25.2491 65.4775 26.3847 65.5135 36 65.5135C45.6153 65.5135 46.7509 65.4775 50.5473 65.304C54.0589 65.1436 55.9636 64.5578 57.2335 64.0636C58.9124 63.4091 60.1135 62.6335 61.3735 61.3735C62.568 60.2116 63.4876 58.7946 64.0636 57.2335C64.5578 55.9636 65.1436 54.0589 65.304 50.5473C65.4775 46.7509 65.5135 45.612 65.5135 36C65.5135 26.388 65.4775 25.2491 65.304 21.4527C65.1436 17.9411 64.5578 16.0364 64.0636 14.7665C63.4091 13.0876 62.6335 11.8865 61.3735 10.6265C60.2114 9.43223 58.7969 8.51305 57.2335 7.93636C55.9636 7.44218 54.0589 6.85636 50.5473 6.696ZM31.4018 47.0978C33.9698 48.1668 36.8292 48.3111 39.4918 47.506C42.1543 46.7009 44.4547 44.9965 46.0002 42.6837C47.5456 40.371 48.2402 37.5934 47.9652 34.8254C47.6903 32.0575 46.4629 29.4708 44.4927 27.5073C43.2368 26.2521 41.7182 25.291 40.0462 24.6932C38.3742 24.0954 36.5905 23.8757 34.8234 24.05C33.0564 24.2243 31.35 24.7882 29.827 25.7012C28.304 26.6141 27.0024 27.8533 26.0159 29.3297C25.0294 30.806 24.3824 32.4828 24.1217 34.2391C23.8609 35.9955 23.9929 37.7879 24.5079 39.4871C25.023 41.1864 25.9085 42.7504 27.1005 44.0664C28.2926 45.3824 29.7616 46.4177 31.4018 47.0978ZM22.9156 22.9156C24.6339 21.1974 26.6738 19.8344 28.9188 18.9045C31.1638 17.9745 33.57 17.4959 36 17.4959C38.43 17.4959 40.8362 17.9745 43.0812 18.9045C45.3262 19.8344 47.3661 21.1974 49.0844 22.9156C50.8026 24.6339 52.1656 26.6738 53.0955 28.9188C54.0255 31.1638 54.5041 33.57 54.5041 36C54.5041 38.43 54.0255 40.8362 53.0955 43.0812C52.1656 45.3262 50.8026 47.3661 49.0844 49.0844C45.6142 52.5546 40.9076 54.5041 36 54.5041C31.0924 54.5041 26.3858 52.5546 22.9156 49.0844C19.4454 45.6142 17.4959 40.9076 17.4959 36C17.4959 31.0924 19.4454 26.3858 22.9156 22.9156ZM58.608 20.2516C59.0338 19.85 59.3747 19.367 59.6105 18.8312C59.8462 18.2954 59.9721 17.7178 59.9806 17.1325C59.9892 16.5472 59.8802 15.9662 59.6601 15.4237C59.4401 14.8813 59.1134 14.3886 58.6995 13.9747C58.2856 13.5608 57.7929 13.2341 57.2504 13.0141C56.708 12.794 56.127 12.685 55.5417 12.6935C54.9564 12.7021 54.3788 12.828 53.843 13.0637C53.3072 13.2995 52.8242 13.6404 52.4225 14.0662C51.6414 14.8943 51.2137 15.9942 51.2303 17.1325C51.2469 18.2708 51.7064 19.3578 52.5114 20.1628C53.3164 20.9677 54.4034 21.4273 55.5417 21.4439C56.68 21.4605 57.7799 21.0328 58.608 20.2516Z" fill="white"/>
</svg>
