<svg width="70" height="70" viewBox="0 0 70 70" fill="none" xmlns="http://www.w3.org/2000/svg">
<path fill-rule="evenodd" clip-rule="evenodd" d="M8.65644e-07 5.84819C8.65644e-07 4.29716 0.616147 2.80965 1.71289 1.7129C2.80964 0.616154 4.29715 7.79645e-06 5.84818 7.79645e-06H64.1454C64.9141 -0.00124759 65.6754 0.149117 66.3859 0.442493C67.0964 0.735868 67.742 1.16649 68.2858 1.70971C68.8296 2.25293 69.2609 2.89808 69.5551 3.60822C69.8492 4.31836 70.0004 5.07954 70 5.84819V64.1455C70.0008 64.9143 69.8501 65.6757 69.5564 66.3861C69.2626 67.0966 68.8317 67.7422 68.2882 68.286C67.7448 68.8298 67.0994 69.261 66.3891 69.5551C65.6788 69.8493 64.9174 70.0004 64.1486 70H5.84818C5.07992 70 4.31919 69.8486 3.60944 69.5545C2.8997 69.2604 2.25486 68.8294 1.71177 68.286C1.16867 67.7426 0.737965 67.0975 0.444254 66.3876C0.150542 65.6777 -0.000417122 64.9169 8.65644e-07 64.1486V5.84819ZM27.7073 26.6891H37.1859V31.4491C38.5541 28.7127 42.0541 26.25 47.3136 26.25C57.3968 26.25 59.7864 31.7005 59.7864 41.7009V60.2255H49.5823V43.9791C49.5823 38.2836 48.2141 35.07 44.7395 35.07C39.9191 35.07 37.9145 38.535 37.9145 43.9791V60.2255H27.7073V26.6891ZM10.2073 59.7896H20.4145V26.25H10.2073V59.7864V59.7896ZM21.875 15.3109C21.8942 16.1849 21.7387 17.0539 21.4176 17.8669C21.0964 18.68 20.6161 19.4207 20.0048 20.0456C19.3935 20.6705 18.6636 21.167 17.8578 21.5059C17.052 21.8449 16.1867 22.0195 15.3125 22.0195C14.4383 22.0195 13.573 21.8449 12.7672 21.5059C11.9614 21.167 11.2315 20.6705 10.6202 20.0456C10.0089 19.4207 9.52857 18.68 9.20742 17.8669C8.88627 17.0539 8.73075 16.1849 8.75 15.3109C8.78778 13.5955 9.49577 11.963 10.7224 10.7631C11.949 9.56322 13.5966 8.89134 15.3125 8.89134C17.0284 8.89134 18.676 9.56322 19.9026 10.7631C21.1292 11.963 21.8372 13.5955 21.875 15.3109Z" fill="white"/>
</svg>
