<svg width="71" height="81" viewBox="0 0 71 81" fill="none" xmlns="http://www.w3.org/2000/svg">
<path d="M71 33.2168C64.0208 33.2335 57.2127 31.0608 51.5375 27.0058V55.287C51.5356 60.525 49.9317 65.6376 46.9403 69.9411C43.9489 74.2446 39.7126 77.534 34.7979 79.3693C29.8831 81.2046 24.5242 81.4985 19.4376 80.2115C14.351 78.9246 9.77925 76.1182 6.33364 72.1677C2.88803 68.2171 0.732786 63.3107 0.156106 58.1044C-0.420574 52.8981 0.608794 47.6402 3.10657 43.0337C5.60434 38.4272 9.45147 34.6916 14.1335 32.3265C18.8156 29.9614 24.1094 29.0795 29.3071 29.7988V44.0233C26.9286 43.2765 24.3746 43.299 22.0096 44.0875C19.6447 44.8761 17.5899 46.3905 16.1386 48.4143C14.6874 50.4381 13.9138 52.868 13.9285 55.3568C13.9432 57.8457 14.7453 60.2663 16.2204 62.2729C17.6955 64.2795 19.768 65.7696 22.1421 66.5303C24.5161 67.291 27.0703 67.2835 29.4398 66.5088C31.8093 65.7341 33.873 64.2318 35.3361 62.2165C36.7993 60.2012 37.5871 57.7759 37.587 55.287V0H51.5375C51.5278 1.17597 51.6265 2.35033 51.8324 3.50825C52.3171 6.09312 53.3251 8.55211 54.7945 10.7348C56.264 12.9175 58.1641 14.778 60.3786 16.2025C63.5292 18.282 67.223 19.3903 71 19.3895V33.2168Z" fill="white"/>
</svg>
